<svg aria-hidden="true" style="position:absolute;width:0;height:0;overflow:hidden" xmlns="http://www.w3.org/2000/svg">
  <defs>
    <symbol id="icon-home" viewBox="0 0 32 32">
      <path d="M30.222 16c0 7.855-6.367 14.222-14.222 14.222S1.778 23.855 1.778 16C1.778 8.145 8.145 1.778 16 1.778S30.222 8.145 30.222 16z"/>
    </symbol>
    <symbol id="icon-facebook" viewBox="0 0 32 32">
      <path d="M20.693 1.92h1.28v4.8h-1.6c-.64 0-1.28 0-1.6.32-.32.32-.32.64-.32 1.387v1.707h3.52v4.053h-3.52v17.6h-5.44V14.08h-2.88v-4.053h2.88V8.64c0-2.347.32-4.053.96-4.8.96-1.387 2.88-2.027 5.76-2.027.32.107.64.107.96.107z"/>
    </symbol>
    <symbol id="icon-burger" viewBox="0 0 32 32">
      <path stroke-linejoin="round" stroke-linecap="round" stroke-width="2.824" d="M1.882 10.51h28.235M1.882 21.49h28.235"/>
    </symbol>
    <symbol id="icon-insta" viewBox="0 0 32 32">
      <path d="M30.962 9.831a10.88 10.88 0 0 0-.701-3.7 7.7 7.7 0 0 0-4.404-4.396 11.05 11.05 0 0 0-3.656-.701C20.592.962 20.082.942 15.998.942s-4.608 0-6.205.092a11.073 11.073 0 0 0-3.654.701 7.7 7.7 0 0 0-4.404 4.396 10.938 10.938 0 0 0-.701 3.648C.962 11.387.94 11.896.94 15.973s0 4.598.094 6.194c.025 1.249.261 2.481.701 3.652a7.706 7.706 0 0 0 4.405 4.395c1.164.454 2.4.711 3.654.751 1.611.072 2.121.094 6.205.094s4.608 0 6.205-.094a11.042 11.042 0 0 0 3.656-.699 7.714 7.714 0 0 0 4.404-4.396c.44-1.169.676-2.401.701-3.652.072-1.606.094-2.116.094-6.195-.003-4.077-.003-4.595-.097-6.193zM15.988 23.684c-4.271 0-7.732-3.455-7.732-7.719s3.46-7.719 7.732-7.719c4.268 0 7.732 3.455 7.732 7.719s-3.464 7.719-7.732 7.719zm8.04-13.924a1.799 1.799 0 1 1 0-3.6 1.8 1.8 0 1 1 0 3.6z"/>
    </symbol>
    <symbol id="icon-x" viewBox="0 0 32 32">
      <path stroke-linejoin="round" stroke-linecap="round" stroke-width="2.353" d="M24 8 8 24M8 8l16 16"/>
    </symbol>
    <symbol id="icon-youtube" viewBox="0 0 32 32">
      <path d="M24.674 5.474c-1.432-.084-4.379-.168-8.842-.168h-.589c-4.295 0-7.158.084-8.589.253-1.937.168-3.284.674-4.042 1.347-.674.589-1.179 1.684-1.347 3.116-.084.926-.168 2.863-.168 5.811v.421c0 2.779.084 4.716.253 5.642.253 1.347.674 2.358 1.516 2.947.842.674 2.274 1.095 4.295 1.263 1.432.084 4.379.168 8.842.168h.589c4.295 0 7.158-.084 8.589-.253 1.937-.168 3.284-.674 4.042-1.347.674-.589 1.179-1.684 1.347-3.116.084-.926.168-2.863.168-5.811v-.421c0-2.779-.084-4.716-.253-5.642-.253-1.347-.674-2.358-1.516-2.947-.842-.674-2.274-1.095-4.295-1.263zm-3.285 10.357-9.263 5.558V10.273l9.263 5.558z"/>
    </symbol>
    <symbol id="icon-circle" viewBox="0 0 32 32">
      <path d="M15.974 29.253c7.371 0 13.347-5.976 13.347-13.347S23.346 2.559 15.974 2.559c-7.371 0-13.347 5.976-13.347 13.347s5.976 13.347 13.347 13.347z"/>
    </symbol>
  </defs>
</svg>
